# xmcd CD database file
# Copyright (C) 1993-1998 Ti Kan
# 
# Track frame offsets:
#     182
#     8872
#     17152
#     26145
#     33550
#     42935
#     54045
#     62137
#     72867
#     84185
#     94542
#     103465
#     109625
#     118237
#     129472
#     140245
#     150642
#     162127
#     176312
#     185292
#     198495
#     211477
#     220625
#     226917
# 
# Disc length: 3166 seconds
# 
# Revision: 1
# Processed by: cddbd v1.4b41PL1 Copyright (c) Steve Scherf et al.
# Submitted via: DiscPlay 4.0.4
# 
DISCID=460c5c18
DTITLE=Hank Williams - Hank Williams Rare Demos: First to Last
DYEAR=1900
DGENRE=
TTITLE0=Won't You Sometimes Think Of Me
TTITLE1=Why Should I Cry
TTITLE2=Calling You
TTITLE3=You Broke Your Own Heart
TTITLE4=Pan American
TTITLE5=Mother Is Gone
TTITLE6=I Watched My Dream World Crumble Like Clay
TTITLE7=In My Dreams You Still Belong To Me
TTITLE8=Wealth Won't Save Your Soul
TTITLE9=I Told A Lie To My Heart
TTITLE10=Singing Waterfall
TTITLE11=I'm Goin' Home
TTITLE12=Jambalaya
TTITLE13=Heaven Holds All My Treasures
TTITLE14=You Better Keep It On Your Mind
TTITLE15=Lost On The River
TTITLE16=Your Cheatin' Heart
TTITLE17=A House Of Gold
TTITLE18=Honky Tonk Blues
TTITLE19=Help Me Understand
TTITLE20='Neath A Cold Gray Tomb Of Stone
TTITLE21=There's Nothing As Sweet As My Baby
TTITLE22=Fool About You
TTITLE23=The Log Train
EXTD=
EXTT0=
EXTT1=
EXTT2=
EXTT3=
EXTT4=
EXTT5=
EXTT6=
EXTT7=
EXTT8=
EXTT9=
EXTT10=
EXTT11=
EXTT12=
EXTT13=
EXTT14=
EXTT15=
EXTT16=
EXTT17=
EXTT18=
EXTT19=
EXTT20=
EXTT21=
EXTT22=
EXTT23=
PLAYORDER=
